<svg width="200" height="60" viewBox="0 0 200 60" fill="none" xmlns="http://www.w3.org/2000/svg">
  <!-- Background circle -->
  <circle cx="30" cy="30" r="28" fill="#2e7d32" stroke="#4caf50" stroke-width="2"/>
  
  <!-- Acupuncture needles -->
  <g stroke="#ffffff" stroke-width="1.5" stroke-linecap="round">
    <line x1="18" y1="15" x2="18" y2="25"/>
    <line x1="30" y1="10" x2="30" y2="20"/>
    <line x1="42" y1="15" x2="42" y2="25"/>
    <line x1="24" y1="35" x2="24" y2="45"/>
    <line x1="36" y1="35" x2="36" y2="45"/>
  </g>
  
  <!-- Needle tips -->
  <g fill="#ffffff">
    <circle cx="18" cy="15" r="1"/>
    <circle cx="30" cy="10" r="1"/>
    <circle cx="42" cy="15" r="1"/>
    <circle cx="24" cy="35" r="1"/>
    <circle cx="36" cy="35" r="1"/>
  </g>
  
  <!-- Yin-yang symbol -->
  <g transform="translate(26, 26)">
    <circle cx="4" cy="4" r="3" fill="#ffffff"/>
    <path d="M 4 1 A 1.5 1.5 0 0 0 4 4 A 1.5 1.5 0 0 1 4 7 A 3 3 0 0 0 4 1" fill="#2e7d32"/>
    <circle cx="4" cy="2.5" r="0.5" fill="#2e7d32"/>
    <circle cx="4" cy="5.5" r="0.5" fill="#ffffff"/>
  </g>
  
  <!-- Company name -->
  <text x="70" y="25" font-family="Poppins, sans-serif" font-size="18" font-weight="600" fill="#2e7d32">Harmony</text>
  <text x="70" y="42" font-family="Poppins, sans-serif" font-size="14" font-weight="400" fill="#4caf50">Acupuncture Clinic</text>
  
  <!-- Decorative elements -->
  <g stroke="#81c784" stroke-width="1" fill="none">
    <path d="M 65 30 Q 67 28 69 30 Q 71 32 73 30" stroke-linecap="round"/>
    <circle cx="180" cy="15" r="2" fill="#81c784"/>
    <circle cx="185" cy="20" r="1.5" fill="#81c784"/>
    <circle cx="190" cy="25" r="1" fill="#81c784"/>
  </g>
  
  <!-- Leaf elements -->
  <g fill="#4caf50">
    <path d="M 175 40 Q 177 38 179 40 Q 177 42 175 40" opacity="0.7"/>
    <path d="M 182 45 Q 184 43 186 45 Q 184 47 182 45" opacity="0.7"/>
  </g>
  
  <!-- Wellness waves -->
  <g stroke="#81c784" stroke-width="0.5" fill="none" opacity="0.6">
    <path d="M 70 50 Q 80 48 90 50 Q 100 52 110 50"/>
    <path d="M 70 52 Q 80 50 90 52 Q 100 54 110 52"/>
  </g>
</svg>
